<svg width="28" height="25" viewBox="0 0 28 25" fill="none" xmlns="http://www.w3.org/2000/svg">
<path d="M6.25 0.839111C5.91848 0.839111 5.60054 0.970807 5.36612 1.20523C5.1317 1.43965 5 1.75759 5 2.08911V4.58911C5 4.92063 5.1317 5.23857 5.36612 5.47299C5.60054 5.70742 5.91848 5.83911 6.25 5.83911C6.58152 5.83911 6.89946 5.70742 7.13388 5.47299C7.3683 5.23857 7.5 4.92063 7.5 4.58911V2.08911C7.5 1.75759 7.3683 1.43965 7.13388 1.20523C6.89946 0.970807 6.58152 0.839111 6.25 0.839111Z" fill="white"/>
<path fill-rule="evenodd" clip-rule="evenodd" d="M15 24.5891C16.7726 24.5894 18.488 23.9618 19.8419 22.8177C21.1959 21.6736 22.1008 20.0869 22.3962 18.3391H22.5C23.8261 18.3391 25.0979 17.8123 26.0355 16.8746C26.9732 15.937 27.5 14.6652 27.5 13.3391C27.5 12.013 26.9732 10.7413 26.0355 9.80358C25.0979 8.8659 23.8261 8.33911 22.5 8.33911V7.08911H0V17.0891C0 19.0782 0.790176 20.9859 2.1967 22.3924C3.60322 23.7989 5.51088 24.5891 7.5 24.5891H15ZM2.5 9.58911V17.0891C2.5 18.4152 3.02678 19.687 3.96447 20.6246C4.90215 21.5623 6.17392 22.0891 7.5 22.0891H15C16.3261 22.0891 17.5979 21.5623 18.5355 20.6246C19.4732 19.687 20 18.4152 20 17.0891V9.58911H2.5ZM25 13.3391C25 14.0022 24.7366 14.638 24.2678 15.1069C23.7989 15.5757 23.163 15.8391 22.5 15.8391V10.8391C23.163 10.8391 23.7989 11.1025 24.2678 11.5713C24.7366 12.0402 25 12.6761 25 13.3391Z" fill="white"/>
<path d="M10 2.08911C10 1.75759 10.1317 1.43965 10.3661 1.20523C10.6005 0.970807 10.9185 0.839111 11.25 0.839111C11.5815 0.839111 11.8995 0.970807 12.1339 1.20523C12.3683 1.43965 12.5 1.75759 12.5 2.08911V4.58911C12.5 4.92063 12.3683 5.23857 12.1339 5.47299C11.8995 5.70742 11.5815 5.83911 11.25 5.83911C10.9185 5.83911 10.6005 5.70742 10.3661 5.47299C10.1317 5.23857 10 4.92063 10 4.58911V2.08911ZM16.25 0.839111C15.9185 0.839111 15.6005 0.970807 15.3661 1.20523C15.1317 1.43965 15 1.75759 15 2.08911V4.58911C15 4.92063 15.1317 5.23857 15.3661 5.47299C15.6005 5.70742 15.9185 5.83911 16.25 5.83911C16.5815 5.83911 16.8995 5.70742 17.1339 5.47299C17.3683 5.23857 17.5 4.92063 17.5 4.58911V2.08911C17.5 1.75759 17.3683 1.43965 17.1339 1.20523C16.8995 0.970807 16.5815 0.839111 16.25 0.839111Z" fill="white"/>
</svg>
