<svg width="16" height="17" viewBox="0 0 16 17" fill="none" xmlns="http://www.w3.org/2000/svg">
<path d="M12 6.5L11.44 12.0987C11.3553 12.9473 11.3133 13.3713 11.12 13.692C10.9504 13.9743 10.7011 14.2 10.4033 14.3407C10.0653 14.5 9.64 14.5 8.78667 14.5H7.21333C6.36067 14.5 5.93467 14.5 5.59667 14.34C5.2987 14.1994 5.04908 13.9737 4.87933 13.6913C4.68733 13.3713 4.64467 12.9473 4.55933 12.0987L4 6.5M9 10.8333V7.5M7 10.8333V7.5M3 4.83333H6.07667M6.07667 4.83333L6.334 3.052C6.40867 2.728 6.678 2.5 6.98733 2.5H9.01267C9.322 2.5 9.59067 2.728 9.666 3.052L9.92333 4.83333M6.07667 4.83333H9.92333M9.92333 4.83333H13" stroke="white" stroke-opacity="0.8" stroke-width="1.5" stroke-linecap="round" stroke-linejoin="round"/>
</svg>
