<svg width="31" height="31" viewBox="0 0 31 31" fill="none" xmlns="http://www.w3.org/2000/svg">
<path d="M18.4502 19.4641L19.6302 18.7816C20.974 18.0041 21.6452 17.6154 21.7352 17.0616C21.7485 16.9752 21.7527 16.8876 21.7477 16.8004C21.7027 16.2429 21.0652 15.8129 19.7915 14.9529L13.9077 10.9816C11.5965 9.42161 11.0652 6.57661 12.6877 4.46411M20.5002 7.58911C20.5002 8.08639 20.3027 8.56331 19.9511 8.91494C19.5994 9.26657 19.1225 9.46411 18.6252 9.46411C18.128 9.46411 17.651 9.26657 17.2994 8.91494C16.9478 8.56331 16.7502 8.08639 16.7502 7.58911C16.7502 7.09183 16.9478 6.61492 17.2994 6.26329C17.651 5.91166 18.128 5.71411 18.6252 5.71411C19.1225 5.71411 19.5994 5.91166 19.9511 6.26329C20.3027 6.61492 20.5002 7.09183 20.5002 7.58911Z" stroke="white" stroke-width="1.5" stroke-linecap="round" stroke-linejoin="round"/>
<path d="M13.9075 10.9816C10.7825 14.1066 9.25 22.7541 9.25 26.9641M13.9075 10.9816C11.5962 9.42161 11.065 6.57661 12.6875 4.46411M13.9075 10.9816L17.215 13.2141M18.45 19.4641L19.63 18.7816C20.9737 18.0041 21.645 17.6154 21.735 17.0616C21.7483 16.9752 21.7525 16.8876 21.7475 16.8004C21.7025 16.2429 21.065 15.8129 19.7912 14.9529L17.2163 13.2141C16.3494 14.3359 15.6076 15.5489 15.0037 16.8316C14.4537 17.9904 14.18 18.5691 14.2312 19.2316L10.5 18.2141M19.25 26.9641C18.0338 25.5454 16.7825 23.5891 15.5625 21.7866C14.7088 20.5241 14.2812 19.8916 14.2312 19.2304" stroke="white" stroke-width="1.5" stroke-linecap="round" stroke-linejoin="round"/>
</svg>
