<svg width="30" height="31" viewBox="0 0 30 31" fill="none" xmlns="http://www.w3.org/2000/svg">
<g clip-path="url(#clip0_988_32)">
<path fill-rule="evenodd" clip-rule="evenodd" d="M17.0382 6.09012L17.2152 5.97714C17.6156 5.72159 17.9633 5.49966 18.3185 5.38711C18.7891 5.23824 19.2905 5.21581 19.7725 5.32207C20.2544 5.42833 20.6999 5.65954 21.0642 5.99248L20.4517 6.66373L21.0649 5.99353C21.3415 6.24559 21.562 6.59119 21.8172 6.99331L22.0492 7.35683C22.8113 6.96145 23.6937 6.86554 24.5229 7.08795C25.3521 7.31037 26.068 7.83501 26.5299 8.55868C26.9918 9.28235 27.1662 10.1527 27.0188 10.9984C26.8713 11.8442 26.4128 12.6041 25.7333 13.1289L25.9653 13.4924C26.2208 13.8928 26.4428 14.2405 26.556 14.5968C26.7046 15.0672 26.7268 15.5685 26.6204 16.0502C26.514 16.532 26.2828 16.9773 25.9499 17.3414C25.6968 17.6186 25.3512 17.8392 24.948 18.0951L24.7721 18.2074C24.3717 18.4629 24.024 18.6848 23.6694 18.7984C23.1987 18.9473 22.6971 18.9696 22.215 18.8632C21.7329 18.7567 21.2873 18.5253 20.923 18.192C20.6458 17.9389 20.4252 17.5933 20.1701 17.1912L18.6004 14.7319L12.8052 18.4307L14.3749 20.89C14.6304 21.2904 14.8524 21.6381 14.9656 21.9944C15.1142 22.4649 15.1364 22.9661 15.03 23.4479C14.9236 23.9296 14.6924 24.3749 14.3595 24.739C14.1064 25.0163 13.7608 25.2368 13.3576 25.4927L13.1817 25.605C12.7813 25.8606 12.4336 26.0825 12.079 26.1961C11.6083 26.3449 11.1067 26.3673 10.6246 26.2608C10.1425 26.1544 9.69692 25.9229 9.33264 25.5897C9.05543 25.3366 8.8359 24.9903 8.57967 24.5888L8.34765 24.2253C7.58561 24.6207 6.70319 24.7166 5.874 24.4942C5.0448 24.2718 4.32884 23.7471 3.86695 23.0235C3.40506 22.2998 3.23069 21.4295 3.37812 20.5837C3.52555 19.738 3.98412 18.978 4.66363 18.4533L4.43161 18.0898C4.17606 17.6894 3.95413 17.3417 3.84158 16.9864C3.69271 16.5159 3.67028 16.0145 3.77654 15.5325C3.8828 15.0506 4.11401 14.605 4.44695 14.2407C4.70006 13.9635 5.04633 13.744 5.44884 13.4871L5.6248 13.3748C6.0252 13.1192 6.37291 12.8973 6.72815 12.7847C7.19869 12.6359 7.70012 12.6135 8.18207 12.7197C8.66402 12.826 9.10953 13.0572 9.47384 13.3901C9.75105 13.6432 9.97058 13.9895 10.2275 14.392L11.7965 16.8502L17.5917 13.1514L16.022 10.6921C15.7665 10.2917 15.5445 9.94403 15.432 9.58879C15.2831 9.11825 15.2607 8.61682 15.3669 8.13487C15.4732 7.65291 15.7044 7.20741 16.0373 6.8431C16.2905 6.56588 16.6357 6.34702 17.0382 6.09012ZM5.68181 20.0486C5.42266 20.299 5.25808 20.6314 5.21595 20.9894C5.17382 21.3473 5.25674 21.7088 5.45065 22.0127C5.64456 22.3165 5.93754 22.5439 6.27995 22.6564C6.62236 22.7689 6.99314 22.7596 7.32947 22.6301L5.68181 20.0486ZM24.7151 11.5336C24.9742 11.2831 25.1388 10.9507 25.1809 10.5928C25.2231 10.2348 25.1401 9.8733 24.9462 9.56948C24.7523 9.26567 24.4593 9.03823 24.1169 8.92572C23.7745 8.8132 23.4037 8.82252 23.0674 8.95209L24.7151 11.5336ZM18.1355 7.61414C17.5949 7.95914 17.4837 8.04049 17.4217 8.10826C17.3107 8.22964 17.2337 8.37807 17.1982 8.53865C17.1627 8.69924 17.1702 8.86632 17.2197 9.02314C17.2464 9.1114 17.3133 9.23029 17.659 9.77187L21.6941 16.0939C22.0391 16.6344 22.1194 16.7463 22.1882 16.8077C22.3096 16.9186 22.458 16.9957 22.6186 17.0312C22.7792 17.0666 22.9463 17.0592 23.1031 17.0097C23.1913 16.983 23.3102 16.916 23.8518 16.5704C24.3924 16.2254 24.5042 16.1451 24.5663 16.0773C24.6772 15.9559 24.7543 15.8075 24.7897 15.6469C24.8252 15.4863 24.8178 15.3192 24.7683 15.1624C24.7409 15.0731 24.6733 14.9532 24.3283 14.4126L20.2932 8.09059C19.9482 7.55006 19.8679 7.43819 19.7991 7.37683C19.6777 7.26587 19.5293 7.1888 19.3687 7.15334C19.2081 7.11788 19.041 7.12529 18.8842 7.17481C18.7959 7.20149 18.677 7.26847 18.1355 7.61414ZM6.54506 15.0118C6.00453 15.3568 5.89333 15.4381 5.8313 15.5059C5.72034 15.6273 5.64327 15.7757 5.60781 15.9363C5.57235 16.0969 5.57975 16.264 5.62928 16.4208C5.65596 16.509 5.72294 16.6279 6.06861 17.1695L10.1037 23.4916C10.4487 24.0321 10.529 24.144 10.5978 24.2053C10.7192 24.3163 10.8676 24.3933 11.0282 24.4288C11.1888 24.4643 11.3559 24.4569 11.5127 24.4073C11.6003 24.3796 11.7198 24.3137 12.2614 23.968C12.802 23.623 12.9138 23.5427 12.9759 23.4749C13.0868 23.3536 13.1639 23.2051 13.1993 23.0445C13.2348 22.884 13.2274 22.7169 13.1779 22.5601C13.1505 22.4707 13.0829 22.3508 12.7379 21.8103L8.70279 15.4882C8.35779 14.9477 8.27749 14.8358 8.20867 14.7745C8.08729 14.6635 7.93886 14.5864 7.77828 14.551C7.6177 14.5155 7.45061 14.5229 7.29379 14.5725C7.20553 14.5991 7.08665 14.6661 6.54506 15.0118Z" fill="white"/>
</g>
<defs>
<clipPath id="clip0_988_32">
<rect width="30" height="30" fill="white" transform="translate(0 0.5)"/>
</clipPath>
</defs>
</svg>
